# xmcd
#
# Track frame offsets:
#	150
#	52931
#	74339
#	90967
#	113086
#	126171
#	143047
#	159027
#	175204
#	195323
#	205138
#	225305
#	241332
#	255005
#	279876
#	295457
#	323399
#	339189
#
# Disc length: 4651 seconds
#
# Revision: 1
# Processed by: cddbd v1.5.2PL0 Copyright (c) Steve Scherf et al.
# Submitted via: audiograbber 1.83.01
#
DISCID=dd122912
DTITLE=Various Artist - Bluesfest 2011 Disc2
DYEAR=2011
DGENRE=Blues
TTITLE0=John Legend and The Roots - I Can't Write Left Handed
TTITLE1=George Clinton - Atomic Dog
TTITLE2=Grace Jones - Pull Up To The Bumper
TTITLE3=Toots and Maytals - Punky Kingston
TTITLE4=Los Lobos - La Bamba
TTITLE5=Michael Franti and Spearhead - The Sound Of Sunshine
TTITLE6=Xavier Rudd - Time To Smile
TTITLE7=The Bamboos - On The Sky
TTITLE8=Ash Grunwald - Breakout
TTITLE9=The Snowdroppers - Do The Stomp
TTITLE10=The Dingoes - Not Worth Fighting For
TTITLE11=Paul Kelly - They Thought I Was Asleep
TTITLE12=Jethro Tull - Thick As A Brick
TTITLE13=Raul Malo - Sinners and Saints
TTITLE14=Eric Bibb - Get Onboard
TTITLE15=Jeff Lang - South
TTITLE16=Kasey Chambers - Little Bird
TTITLE17=Shane Nicols - Famous Last Words
EXTD=
EXTT0=
EXTT1=
EXTT2=
EXTT3=
EXTT4=
EXTT5=
EXTT6=
EXTT7=
EXTT8=
EXTT9=
EXTT10=
EXTT11=
EXTT12=
EXTT13=
EXTT14=
EXTT15=
EXTT16=
EXTT17=
PLAYORDER=
